# xmcd
#
# Track frame offsets: 
#        150
#        18194
#        38364
#        55590
#        80826
#        95706
#        121553
#        138889
#        168256
#        187154
#        209629
#        238163
#        254940
#        293389
#
# Disc length: 4328 seconds
#
# Revision: 1
# Processed by: cddbd v1.5.2PL0 Copyright (c) Steve Scherf et al.
# Submitted via: ExactAudioCopy v0.95b4
#
DISCID=c010e60e
DTITLE=Various Artist - Ballades Américaines
DYEAR=2005
DGENRE=Country
TTITLE0=Johnny A/Wichita Lineman
TTITLE1=Theresa Anderson/Lorraine's Song
TTITLE2=Malcom Papa Mali Welbourne/Lover's Heart
TTITLE3=Peter Rowan and Tony Rice/Miss Liberty (Lay my lonesome down)
TTITLE4=Gia Ciambotti/What's the Cure
TTITLE5=Johnny Adams/Walking on a Tightrope
TTITLE6=Carolyn Wonderland/I'm walking home
TTITLE7=The Holmes Brothers/When something is wrong with my baby
TTITLE8=Lynn Morris/Mama's Hand
TTITLE9=Jimmy McCracklin/Yesterday is gone
TTITLE10=Cissy Houston/Face to face
TTITLE11=Larry Davis/Letter from my darling
TTITLE12=Walter Hawkins/I'm going away
TTITLE13=The mighty clouds of Joy/He will do it
EXTD=YEAR: 2005
EXTT0=
EXTT1=
EXTT2=
EXTT3=
EXTT4=
EXTT5=
EXTT6=
EXTT7=
EXTT8=
EXTT9=
EXTT10=
EXTT11=
EXTT12=
EXTT13=
PLAYORDER=
